<svg id="Layer_1" data-name="Layer 1" xmlns="http://www.w3.org/2000/svg" viewBox="0 0 937.07 282.07"><defs><style>.cls-1,.cls-3,.cls-4{fill:#fff;}.cls-1,.cls-2,.cls-3{stroke:#000;}.cls-1,.cls-2,.cls-3,.cls-4{stroke-miterlimit:10;}.cls-1,.cls-2{stroke-width:10.07px;}.cls-3,.cls-4{stroke-width:10px;}.cls-4{stroke:#fff;}</style></defs><title>logo</title><rect class="cls-1" x="777.04" y="5.04" width="155" height="272"/><rect class="cls-2" x="5.04" y="5.04" width="772" height="272"/><path class="cls-3" d="M1109.75,391.76a.75.75,0,0,1-.42.14.67.67,0,0,1-.55-.27c-7-9.24-15.13-14.14-24.1-14.58-16.82-.89-31.26,14.47-31.41,14.63a.68.68,0,0,1-.57.21v61.43a.69.69,0,1,1-1.38,0V376a.69.69,0,0,1,1.38,0v14.28c2.61-2.65,16-15.43,32-14.61,9.4.46,17.86,5.55,25.14,15.13A.7.7,0,0,1,1109.75,391.76Z" transform="translate(-218.96 -242.96)"/><path class="cls-4" d="M462.31,314.21l-61.42,165.3a.7.7,0,0,1-.65.45.69.69,0,0,1-.65-.45l-41-110.37-41,110.37a.69.69,0,0,1-1.3,0l-61.43-165.3a.69.69,0,0,1,.41-.89.68.68,0,0,1,.89.41l60.78,163.55,40.92-110.13-19.67-52.94a.69.69,0,1,1,1.3-.48l19.11,51.43,19.12-51.43a.68.68,0,0,1,.89-.41.69.69,0,0,1,.41.89l-19.68,52.94,40.93,110.13L461,313.73a.69.69,0,0,1,1.3.48Z" transform="translate(-218.96 -242.96)"/><path class="cls-4" d="M581.24,479.64a.69.69,0,0,1-.69.69h-92a.69.69,0,0,1-.7-.69V314.29a.7.7,0,0,1,.7-.7l91.95-.2h0a.7.7,0,0,1,0,1.39l-91.27.2v84.93H580a.7.7,0,0,1,0,1.39H489.28v77.64h91.27A.69.69,0,0,1,581.24,479.64Z" transform="translate(-218.96 -242.96)"/><path class="cls-4" d="M605.15,479.58a.69.69,0,1,1-1.24-.62l82.57-165.15a.72.72,0,0,1,1.24,0L770.3,479a.7.7,0,0,1-.31.93.87.87,0,0,1-.31.07.7.7,0,0,1-.62-.38L729.92,401.3H644.29Zm82-163.91L645,399.91h84.25Z" transform="translate(-218.96 -242.96)"/><path class="cls-4" d="M873,314.15a.69.69,0,0,1-.69.69H830.39v165.1a.69.69,0,1,1-1.38,0V314.84H787.08a.69.69,0,0,1,0-1.38h85.24A.69.69,0,0,1,873,314.15Z" transform="translate(-218.96 -242.96)"/><path class="cls-4" d="M982.42,313.71V479.27a.7.7,0,0,1-1.39,0V402.73H890.46v76.54a.7.7,0,0,1-1.39,0V313.92a.7.7,0,1,1,1.39,0v87.43H981V313.71a.7.7,0,0,1,1.39,0Z" transform="translate(-218.96 -242.96)"/></svg>